USFL
nRows=149
nColumns=2
inDegrees=yes
endheader
time	med_gas_r	
4.18723	 37.396919	
4.24973	 37.367973	
4.31222	 37.292911	
4.37472	 37.230351	
4.43722	 37.208286	
4.49971	 37.186620	
4.56221	 37.152862	
4.6247	 37.126211	
4.6872	 37.105294	
4.7497	 37.139432	
4.81219	 37.145013	
4.87469	 37.150306	
4.93718	 37.141998	
4.99968	 37.126825	
5.06218	 37.133631	
5.12467	 37.225642	
5.18717	 37.216024	
5.24966	 37.210088	
5.31216	 37.211952	
5.37466	 37.210785	
5.43715	 37.244096	
5.49965	 37.241655	
5.56214	 37.185632	
5.62464	 37.166912	
5.68714	 37.153945	
5.74963	 37.057805	
5.81213	 36.999517	
5.87462	 36.997834	
5.93712	 36.925705	
5.99962	 36.759360	
6.06211	 36.722064	
6.12461	 36.641111	
6.1871	 36.609554	
6.2496	 36.581040	
6.3121	 34.286384	
6.37459	 34.697326	
6.43709	 34.755691	
6.49958	 34.275515	
6.56208	 33.306025	
6.62458	 32.888084	
6.68707	 31.608139	
6.74957	 29.684507	
6.81206	 27.905374	
6.87456	 27.018030	
6.93706	 27.261067	
6.99955	 27.380237	
7.06205	 27.392962	
7.12454	 27.383399	
7.18704	 27.475294	
7.24954	 27.379191	
7.31203	 27.698014	
7.37453	 27.800467	
7.43702	 27.794713	
7.49952	 27.741153	
7.56202	 27.052499	
7.62451	 27.241668	
7.68701	 27.527350	
7.7495	 27.606201	
7.812	 27.437069	
7.8745	 26.226011	
7.93699	 26.275620	
7.99949	 26.327924	
8.06198	 26.332736	
8.12448	 26.244727	
8.18698	 26.096398	
8.24947	 26.060975	
8.31197	 25.912387	
8.37446	 25.713246	
8.43696	 25.586530	
8.49946	 25.534255	
8.56195	 25.609970	
8.62445	 25.738807	
8.68694	 25.979088	
8.74944	 25.839442	
8.81194	 25.017804	
8.87443	 24.279942	
8.93693	 24.282802	
8.99942	 24.451823	
9.06192	 24.341956	
9.12442	 24.440302	
9.18691	 24.608807	
9.24941	 24.671331	
9.3119	 24.593784	
9.3744	 24.477567	
9.4369	 24.686525	
9.49939	 24.759167	
9.56189	 24.820317	
9.62438	 25.139080	
9.68688	 25.065185	
9.74938	 25.366123	
9.81187	 25.472454	
9.87437	 25.140077	
9.93686	 24.981200	
9.99936	 24.896325	
10.0619	 24.928037	
10.1244	 24.801329	
10.1868	 24.845477	
10.2493	 24.985122	
10.3118	 24.789122	
10.3743	 24.781170	
10.4368	 24.508367	
10.4993	 24.794756	
10.5618	 24.879715	
10.6243	 24.873278	
10.6868	 24.949970	
10.7493	 24.912470	
10.8118	 24.834460	
10.8743	 24.647356	
10.9368	 24.700198	
10.9993	 24.508885	
11.0618	 24.395522	
11.1243	 24.176835	
11.1868	 24.394980	
11.2493	 24.260722	
11.3118	 24.191808	
11.3743	 24.422938	
11.4368	 24.456266	
11.4993	 24.452757	
11.5618	 24.420493	
11.6243	 24.205070	
11.6868	 24.248446	
11.7492	 24.548474	
11.8117	 24.861748	
11.8742	 24.659552	
11.9367	 24.849415	
11.9992	 25.071598	
12.0617	 25.127463	
12.1242	 25.011236	
12.1867	 25.271290	
12.2492	 25.355038	
12.3117	 25.346454	
12.3742	 30.055731	
12.4367	 29.977061	
12.4992	 29.738441	
12.5617	 30.379968	
12.6242	 30.355620	
12.6867	 32.384699	
12.7492	 32.396650	
12.8117	 32.518305	
12.8742	 35.073829	
12.9367	 35.281962	
12.9992	 35.249495	
13.0617	 35.174747	
13.1242	 35.336637	
13.1867	 35.515988	
13.2492	 35.678656	
13.3116	 35.673750	
13.3741	 35.491052	
13.4366	 35.619796	
